<svg xmlns="http://www.w3.org/2000/svg" width="1600" height="900" viewBox="0 0 1600 900"><rect width="1600" height="900" rx="48" fill="#f8fafc"/><text x="120" y="145" font-family="Arial,sans-serif" font-size="56" font-weight="700" fill="#0f172a">AI Image Generators Compared</text><text x="120" y="205" font-family="Arial,sans-serif" font-size="28" fill="#64748b">Which one is actually worth paying for?</text><rect x="170" y="310" width="1260" height="390" rx="32" fill="white" stroke="#cbd5e1" stroke-width="4"/><rect x="250" y="385" width="240" height="220" rx="22" fill="#fee2e2"/><circle cx="370" cy="475" r="62" fill="#dc2626"/><path d="M330 475l28 28 52-60" fill="none" stroke="white" stroke-width="13" stroke-linecap="round" stroke-linejoin="round"/><rect x="680" y="385" width="240" height="220" rx="22" fill="#e2e8f0"/><circle cx="800" cy="475" r="62" fill="#0f172a"/><path d="M760 475l28 28 52-60" fill="none" stroke="white" stroke-width="13" stroke-linecap="round" stroke-linejoin="round"/><rect x="1110" y="385" width="240" height="220" rx="22" fill="#f1f5f9"/><circle cx="1230" cy="475" r="62" fill="#16a34a"/><path d="M1190 475l28 28 52-60" fill="none" stroke="white" stroke-width="13" stroke-linecap="round" stroke-linejoin="round"/><text x="265" y="650" font-family="Arial,sans-serif" font-size="23" fill="#475569">Quality</text><text x="695" y="650" font-family="Arial,sans-serif" font-size="23" fill="#475569">Control</text><text x="1120" y="650" font-family="Arial,sans-serif" font-size="23" fill="#475569">Value</text><text x="465" y="785" font-family="Arial,sans-serif" font-size="27" fill="#475569">Compare output quality, control, speed, and price.</text></svg>